<svg width="22" height="21" viewBox="0 0 22 21" fill="none" xmlns="http://www.w3.org/2000/svg">
<path fill-rule="evenodd" clip-rule="evenodd" d="M3.16595 8.41696C3.91448 9.11224 4.94079 9.54111 6.07305 9.54111C8.36409 9.54111 10.2213 7.78522 10.2213 5.61922C10.2213 5.27446 10.1743 4.94009 10.0859 4.62154C11.0293 3.4431 12.5532 2.67781 14.2724 2.67781C17.1362 2.67781 19.4578 4.80121 19.4578 7.42055C19.4578 7.88942 19.3834 8.3424 19.2448 8.77016C19.8199 9.06555 20.2861 9.49227 20.6086 10.0185C20.9316 10.5455 21.1106 11.1723 21.1106 11.8669C21.1106 12.5615 20.9316 13.1883 20.6086 13.7152C20.2856 14.2422 19.8186 14.6694 19.2424 14.9648C18.6663 15.2602 17.981 15.4239 17.2216 15.4239H4.25817C3.49872 15.4239 2.81346 15.2602 2.23731 14.9648C1.66116 14.6694 1.19411 14.2422 0.871111 13.7152C0.548107 13.1883 0.369141 12.5615 0.369141 11.8669C0.369141 11.1723 0.548107 10.5455 0.871111 10.0185C1.19411 9.49155 1.66116 9.06437 2.23731 8.76894C2.41903 8.67576 2.6116 8.59568 2.81394 8.52972C2.81135 8.51343 2.96334 8.47701 3.16595 8.41696Z" fill="url(#paint0_linear_1263_9490)"/>
<path fill-rule="evenodd" clip-rule="evenodd" d="M5.18236 17.2107C5.32907 16.9705 5.64721 16.8853 5.8943 17.0202C6.14323 17.1561 6.22549 17.4635 6.07768 17.7056L5.26903 19.0297C5.12232 19.27 4.80418 19.3551 4.55709 19.2202C4.30816 19.0844 4.2259 18.7769 4.37371 18.5349L5.18236 17.2107Z" fill="#B6B3BB"/>
<path fill-rule="evenodd" clip-rule="evenodd" d="M10.3679 17.2107C10.5146 16.9705 10.8328 16.8854 11.0798 17.0202C11.3288 17.1561 11.411 17.4635 11.2632 17.7056L10.4546 19.0297C10.3079 19.27 9.98973 19.3551 9.74264 19.2202C9.49371 19.0844 9.41145 18.7769 9.55926 18.5349L10.3679 17.2107Z" fill="#B6B3BB"/>
<path fill-rule="evenodd" clip-rule="evenodd" d="M15.5535 17.2107C15.7002 16.9705 16.0183 16.8853 16.2654 17.0202C16.5143 17.1561 16.5966 17.4635 16.4488 17.7056L15.6401 19.0297C15.4934 19.27 15.1753 19.3551 14.9282 19.2202C14.6793 19.0844 14.597 18.7769 14.7448 18.5349L15.5535 17.2107Z" fill="#B6B3BB"/>
<ellipse cx="6.07411" cy="5.61922" rx="3.11122" ry="2.94141" fill="url(#paint1_linear_1263_9490)"/>
<path fill-rule="evenodd" clip-rule="evenodd" d="M4.32413 0.128182C4.60075 0.0581069 4.88508 0.213307 4.9592 0.474831L5.22762 1.42189C5.30174 1.68342 5.13758 1.95223 4.86095 2.02231C4.58433 2.09238 4.3 1.93718 4.22588 1.67566L3.95746 0.728595C3.88334 0.467071 4.0475 0.198257 4.32413 0.128182Z" fill="url(#paint2_linear_1263_9490)"/>
<path fill-rule="evenodd" clip-rule="evenodd" d="M8.2106 0.449685C8.47014 0.564108 8.58244 0.855789 8.46141 1.10117L8.02312 1.98978C7.90209 2.23516 7.59357 2.34133 7.33402 2.2269C7.07447 2.11248 6.96218 1.8208 7.08321 1.57541L7.5215 0.686806C7.64253 0.441424 7.95105 0.335261 8.2106 0.449685Z" fill="url(#paint3_linear_1263_9490)"/>
<path fill-rule="evenodd" clip-rule="evenodd" d="M0.117656 5.80702C0.0926959 5.5373 0.303736 5.29952 0.589026 5.27592L1.62215 5.19047C1.90744 5.16687 2.15895 5.36639 2.18391 5.63611C2.20887 5.90583 1.99783 6.14361 1.71254 6.16721L0.679413 6.25266C0.394123 6.27626 0.142615 6.07674 0.117656 5.80702Z" fill="url(#paint4_linear_1263_9490)"/>
<path fill-rule="evenodd" clip-rule="evenodd" d="M1.12734 2.24397C1.2916 2.02218 1.61493 1.96828 1.84952 2.12358L2.69904 2.68595C2.93363 2.84125 2.99064 3.14693 2.82638 3.36872C2.66212 3.5905 2.33879 3.6444 2.1042 3.48911L1.25468 2.92673C1.02009 2.77143 0.963076 2.46575 1.12734 2.24397Z" fill="url(#paint5_linear_1263_9490)"/>
<defs>
<linearGradient id="paint0_linear_1263_9490" x1="0.536931" y1="2.67781" x2="0.536931" y2="15.2177" gradientUnits="userSpaceOnUse">
<stop stop-color="#689CFF"/>
<stop offset="1" stop-color="#37A7F4"/>
</linearGradient>
<linearGradient id="paint1_linear_1263_9490" x1="2.96289" y1="2.67781" x2="2.96289" y2="8.56064" gradientUnits="userSpaceOnUse">
<stop stop-color="#FFC31F"/>
<stop offset="1" stop-color="#FFB500"/>
</linearGradient>
<linearGradient id="paint2_linear_1263_9490" x1="3.82422" y1="0.255592" x2="4.31027" y2="2.16266" gradientUnits="userSpaceOnUse">
<stop stop-color="#FFC31F"/>
<stop offset="1" stop-color="#FFB500"/>
</linearGradient>
<linearGradient id="paint3_linear_1263_9490" x1="6.71484" y1="0.711609" x2="7.14381" y2="2.39468" gradientUnits="userSpaceOnUse">
<stop stop-color="#FFC31F"/>
<stop offset="1" stop-color="#FFB500"/>
</linearGradient>
<linearGradient id="paint4_linear_1263_9490" x1="0" y1="5.41811" x2="0.285634" y2="6.53882" gradientUnits="userSpaceOnUse">
<stop stop-color="#FFC31F"/>
<stop offset="1" stop-color="#FFB500"/>
</linearGradient>
<linearGradient id="paint5_linear_1263_9490" x1="0.917969" y1="2.17902" x2="1.34741" y2="3.86396" gradientUnits="userSpaceOnUse">
<stop stop-color="#FFC31F"/>
<stop offset="1" stop-color="#FFB500"/>
</linearGradient>
</defs>
</svg>
